<mxfile host="app.diagrams.net" modified="2023-02-21T19:52:31.574Z" agent="5.0 (Windows NT 10.0; Win64; x64) AppleWebKit/537.36 (KHTML, like Gecko) Chrome/109.0.0.0 Safari/537.36" etag="ovnWlKdfKADbR_UR7LGY" version="20.8.20" type="github">
  <diagram name="‫עמוד-1‬" id="UTx1FxKETpSa5mLvCJv0">
    <mxGraphModel dx="794" dy="438" grid="1" gridSize="10" guides="1" tooltips="1" connect="1" arrows="1" fold="1" page="1" pageScale="1" pageWidth="827" pageHeight="1169" math="0" shadow="0">
      <root>
        <mxCell id="0" />
        <mxCell id="1" parent="0" />
        <mxCell id="ysbtws3u_5ZjublSt12L-7" value="" style="group" vertex="1" connectable="0" parent="1">
          <mxGeometry x="40" y="160" width="100" height="330" as="geometry" />
        </mxCell>
        <mxCell id="ysbtws3u_5ZjublSt12L-1" value="" style="rounded=1;whiteSpace=wrap;html=1;fillColor=#f5f5f5;fontColor=#333333;strokeColor=#666666;" vertex="1" parent="ysbtws3u_5ZjublSt12L-7">
          <mxGeometry width="100" height="330" as="geometry" />
        </mxCell>
        <mxCell id="ysbtws3u_5ZjublSt12L-3" value="מערכת חדרי ניתוח" style="rounded=0;whiteSpace=wrap;html=1;fillColor=#f5f5f5;fontColor=#333333;strokeColor=#666666;strokeWidth=2;" vertex="1" parent="ysbtws3u_5ZjublSt12L-7">
          <mxGeometry x="10" y="50" width="80" height="90" as="geometry" />
        </mxCell>
        <mxCell id="ysbtws3u_5ZjublSt12L-4" value="עידן" style="rounded=0;whiteSpace=wrap;html=1;fillColor=#f5f5f5;fontColor=#333333;strokeColor=#666666;strokeWidth=2;" vertex="1" parent="ysbtws3u_5ZjublSt12L-7">
          <mxGeometry x="10" y="140" width="80" height="90" as="geometry" />
        </mxCell>
        <mxCell id="ysbtws3u_5ZjublSt12L-5" value="..." style="rounded=0;whiteSpace=wrap;html=1;fillColor=#f5f5f5;fontColor=#333333;strokeColor=#666666;strokeWidth=2;" vertex="1" parent="ysbtws3u_5ZjublSt12L-7">
          <mxGeometry x="10" y="230" width="80" height="90" as="geometry" />
        </mxCell>
        <mxCell id="ysbtws3u_5ZjublSt12L-6" value="&lt;font style=&quot;font-size: 14px;&quot;&gt;מערכות מקור&lt;/font&gt;" style="text;html=1;strokeColor=none;fillColor=none;align=center;verticalAlign=middle;whiteSpace=wrap;rounded=0;" vertex="1" parent="ysbtws3u_5ZjublSt12L-7">
          <mxGeometry x="20" y="10" width="60" height="30" as="geometry" />
        </mxCell>
        <mxCell id="ysbtws3u_5ZjublSt12L-8" value="" style="group;fillColor=#dae8fc;strokeColor=#6c8ebf;" vertex="1" connectable="0" parent="1">
          <mxGeometry x="180" y="160" width="100" height="330" as="geometry" />
        </mxCell>
        <mxCell id="ysbtws3u_5ZjublSt12L-10" value="מודל ניתוחים" style="rounded=0;whiteSpace=wrap;html=1;fillColor=#dae8fc;strokeColor=#6c8ebf;strokeWidth=2;" vertex="1" parent="ysbtws3u_5ZjublSt12L-8">
          <mxGeometry x="10" y="50" width="80" height="60" as="geometry" />
        </mxCell>
        <mxCell id="ysbtws3u_5ZjublSt12L-11" value="מודל דמוגרפיה" style="rounded=0;whiteSpace=wrap;html=1;fillColor=#dae8fc;strokeColor=#6c8ebf;strokeWidth=2;" vertex="1" parent="ysbtws3u_5ZjublSt12L-8">
          <mxGeometry x="10" y="110" width="80" height="60" as="geometry" />
        </mxCell>
        <mxCell id="ysbtws3u_5ZjublSt12L-12" value="מודל הרשאות" style="rounded=0;whiteSpace=wrap;html=1;fillColor=#dae8fc;strokeColor=#6c8ebf;strokeWidth=2;" vertex="1" parent="ysbtws3u_5ZjublSt12L-8">
          <mxGeometry x="10" y="170" width="80" height="50" as="geometry" />
        </mxCell>
        <mxCell id="ysbtws3u_5ZjublSt12L-13" value="&lt;font style=&quot;font-size: 14px;&quot;&gt;DWH&lt;/font&gt;" style="text;html=1;strokeColor=none;fillColor=none;align=center;verticalAlign=middle;whiteSpace=wrap;rounded=0;" vertex="1" parent="ysbtws3u_5ZjublSt12L-8">
          <mxGeometry x="20" y="10" width="60" height="30" as="geometry" />
        </mxCell>
        <mxCell id="ysbtws3u_5ZjublSt12L-14" value="..." style="rounded=0;whiteSpace=wrap;html=1;fillColor=#dae8fc;strokeColor=#6c8ebf;strokeWidth=2;" vertex="1" parent="ysbtws3u_5ZjublSt12L-8">
          <mxGeometry x="10" y="220" width="80" height="50" as="geometry" />
        </mxCell>
        <mxCell id="ysbtws3u_5ZjublSt12L-16" value="" style="endArrow=classic;html=1;rounded=0;fontSize=14;exitX=1;exitY=0.5;exitDx=0;exitDy=0;entryX=0;entryY=0.5;entryDx=0;entryDy=0;strokeColor=#3399FF;" edge="1" parent="1" source="ysbtws3u_5ZjublSt12L-1">
          <mxGeometry width="50" height="50" relative="1" as="geometry">
            <mxPoint x="380" y="380" as="sourcePoint" />
            <mxPoint x="180" y="325" as="targetPoint" />
          </mxGeometry>
        </mxCell>
        <mxCell id="ysbtws3u_5ZjublSt12L-25" value="" style="group" vertex="1" connectable="0" parent="1">
          <mxGeometry x="364" y="210" width="100" height="220" as="geometry" />
        </mxCell>
        <mxCell id="ysbtws3u_5ZjublSt12L-21" value="טבלת&lt;br&gt;FACT&lt;br&gt;יומית" style="whiteSpace=wrap;html=1;aspect=fixed;strokeWidth=2;fontSize=14;fillColor=#dae8fc;strokeColor=#6c8ebf;" vertex="1" parent="ysbtws3u_5ZjublSt12L-25">
          <mxGeometry width="100" height="100" as="geometry" />
        </mxCell>
        <mxCell id="ysbtws3u_5ZjublSt12L-22" value="טבלת שגויים" style="whiteSpace=wrap;html=1;aspect=fixed;strokeWidth=2;fontSize=14;fillColor=#dae8fc;strokeColor=#6c8ebf;" vertex="1" parent="ysbtws3u_5ZjublSt12L-25">
          <mxGeometry y="120" width="100" height="100" as="geometry" />
        </mxCell>
        <mxCell id="ysbtws3u_5ZjublSt12L-23" value="&lt;font style=&quot;font-size: 9px;&quot;&gt;DWH&lt;/font&gt;" style="rounded=1;whiteSpace=wrap;html=1;strokeWidth=1;fontSize=14;fillColor=#f5f5f5;fontColor=#333333;strokeColor=#666666;" vertex="1" parent="ysbtws3u_5ZjublSt12L-25">
          <mxGeometry y="80" width="50" height="20" as="geometry" />
        </mxCell>
        <mxCell id="ysbtws3u_5ZjublSt12L-24" value="&lt;font style=&quot;font-size: 9px;&quot;&gt;DWH&lt;/font&gt;" style="rounded=1;whiteSpace=wrap;html=1;strokeWidth=1;fontSize=14;fillColor=#f5f5f5;fontColor=#333333;strokeColor=#666666;" vertex="1" parent="ysbtws3u_5ZjublSt12L-25">
          <mxGeometry y="200" width="50" height="20" as="geometry" />
        </mxCell>
        <mxCell id="ysbtws3u_5ZjublSt12L-26" value="" style="edgeStyle=orthogonalEdgeStyle;rounded=0;orthogonalLoop=1;jettySize=auto;html=1;strokeColor=#3399FF;fontSize=9;" edge="1" parent="1" source="ysbtws3u_5ZjublSt12L-11" target="ysbtws3u_5ZjublSt12L-23">
          <mxGeometry relative="1" as="geometry" />
        </mxCell>
        <mxCell id="ysbtws3u_5ZjublSt12L-29" value="&lt;font color=&quot;#ff0000&quot; style=&quot;font-size: 12px;&quot;&gt;PRMJR1&lt;/font&gt;" style="text;html=1;strokeColor=none;fillColor=none;align=center;verticalAlign=middle;whiteSpace=wrap;rounded=0;fontSize=9;" vertex="1" parent="1">
          <mxGeometry x="290" y="280" width="60" height="30" as="geometry" />
        </mxCell>
      </root>
    </mxGraphModel>
  </diagram>
</mxfile>
